HIERARCHY
ROOT Hips
{
	OFFSET 0.000000 0.000000 0.000000
	CHANNELS 6 Xposition Yposition Zposition Zrotation Yrotation Xrotation 
	JOINT LHipJoint
	{
		OFFSET 0.000000 0.000000 0.000000
		CHANNELS 3 Zrotation Yrotation Xrotation
		JOINT LeftUpLeg
		{
			OFFSET 1.363060 -1.794630 0.839290
			CHANNELS 3 Zrotation Yrotation Xrotation
			JOINT LeftLeg
			{
				OFFSET 2.448110 -6.726130 0.000000
				CHANNELS 3 Zrotation Yrotation Xrotation
				JOINT LeftFoot
				{
					OFFSET 2.562200 -7.039590 0.000000
					CHANNELS 3 Zrotation Yrotation Xrotation
					JOINT LeftToeBase
					{
						OFFSET 0.157640 -0.433110 2.322550
						CHANNELS 3 Zrotation Yrotation Xrotation
						End Site
						{
							OFFSET 0.000000 0.000000 0.000000
						}
					}
				}
			}
		}
	}
	JOINT RHipJoint
	{
		OFFSET 0.000000 0.000000 0.000000
		CHANNELS 3 Zrotation Yrotation Xrotation
		JOINT RightUpLeg
		{
			OFFSET -1.305520 -1.794630 0.839290
			CHANNELS 3 Zrotation Yrotation Xrotation
			JOINT RightLeg
			{
				OFFSET -2.542530 -6.985550 0.000000
				CHANNELS 3 Zrotation Yrotation Xrotation
				JOINT RightFoot
				{
					OFFSET -2.568260 -7.056230 0.000000
					CHANNELS 3 Zrotation Yrotation Xrotation
					JOINT RightToeBase
					{
						OFFSET -0.164730 -0.452590 2.363150
						CHANNELS 3 Zrotation Yrotation Xrotation
						End Site
						{
							OFFSET 0.000000 0.000000 0.000000
						}
					}
				}
			}
		}
	}
	JOINT LowerBack
	{
		OFFSET 0.000000 0.000000 0.000000
		CHANNELS 3 Zrotation Yrotation Xrotation
		JOINT Spine
		{
			OFFSET 0.028270 2.035590 -0.193380
			CHANNELS 3 Zrotation Yrotation Xrotation
			JOINT Spine1
			{
				OFFSET 0.056720 2.048850 -0.042750
				CHANNELS 3 Zrotation Yrotation Xrotation
				JOINT Neck
				{
					OFFSET 0.000000 0.000000 0.000000
					CHANNELS 3 Zrotation Yrotation Xrotation
					JOINT Neck1
					{
						OFFSET -0.054170 1.746240 0.172020
						CHANNELS 3 Zrotation Yrotation Xrotation
						JOINT Head
						{
							OFFSET 0.104070 1.761360 -0.123970
							CHANNELS 3 Zrotation Yrotation Xrotation
							End Site
							{
								OFFSET 0.000000 0.000000 0.000000
							}
						}
					}
				}
				JOINT LeftShoulder
				{
					OFFSET 0.000000 0.000000 0.000000
					CHANNELS 3 Zrotation Yrotation Xrotation
					JOINT LeftArm
					{
						OFFSET 3.362410 1.200890 -0.311210
						CHANNELS 3 Zrotation Yrotation Xrotation
						JOINT LeftForeArm
						{
							OFFSET 4.983000 -0.000000 -0.000000
							CHANNELS 3 Zrotation Yrotation Xrotation
							JOINT LeftHand
							{
								OFFSET 3.483560 -0.000000 -0.000000
								CHANNELS 3 Zrotation Yrotation Xrotation
								JOINT LeftFingerBase
								{
									OFFSET 0.000000 0.000000 0.000000
									CHANNELS 3 Zrotation Yrotation Xrotation
									JOINT LeftHandIndex1
									{
										OFFSET 0.715260 -0.000000 -0.000000
										CHANNELS 3 Zrotation Yrotation Xrotation
										End Site
										{
											OFFSET 0.000000 0.000000 0.000000
										}
									}
								}
								JOINT LThumb
								{
									OFFSET 0.000000 0.000000 0.000000
									CHANNELS 3 Zrotation Yrotation Xrotation
									End Site
									{
										OFFSET 0.000000 0.000000 0.000000
									}
								}
							}
						}
					}
				}
				JOINT RightShoulder
				{
					OFFSET 0.000000 0.000000 0.000000
					CHANNELS 3 Zrotation Yrotation Xrotation
					JOINT RightArm
					{
						OFFSET -3.136600 1.374050 -0.404650
						CHANNELS 3 Zrotation Yrotation Xrotation
						JOINT RightForeArm
						{
							OFFSET -5.241900 -0.000000 -0.000000
							CHANNELS 3 Zrotation Yrotation Xrotation
							JOINT RightHand
							{
								OFFSET -3.444170 -0.000000 -0.000000
								CHANNELS 3 Zrotation Yrotation Xrotation
								JOINT RightFingerBase
								{
									OFFSET 0.000000 0.000000 0.000000
									CHANNELS 3 Zrotation Yrotation Xrotation
									JOINT RightHandIndex1
									{
										OFFSET -0.622530 -0.000000 -0.000000
										CHANNELS 3 Zrotation Yrotation Xrotation
										End Site
										{
											OFFSET 0.000000 0.000000 0.000000
										}
									}
								}
								JOINT RThumb
								{
									OFFSET 0.000000 0.000000 0.000000
									CHANNELS 3 Zrotation Yrotation Xrotation
									End Site
									{
										OFFSET 0.000000 0.000000 0.000000
									}
								}
							}
						}
					}
				}
			}
		}
	}
}
MOTION
Frames: 10
Frame Time: 0.008333
3.192022 16.946114 1.639624 -41.355530 -65.078254 22.813120 -13.186281 -0.359225 -2.683348 3.742590 -0.998761 14.141373 0.002930 2.194300 22.313773 2.612030 13.926895 -14.268984 -1.508200 -0.000000 -35.560300 6.563142 7.267295 1.020104 -0.535680 -26.059254 -68.437154 1.472354 1.043915 2.774196 0.112071 -20.312307 -7.730203 -6.006100 0.000000 -56.660600 3.581093 -8.441092 3.226548 0.872064 -8.717643 -1.865468 -3.751713 -8.673157 0.624942 9.189136 -24.919051 -6.848912 -0.544510 -0.048109 0.151108 0.000000 0.000000 0.000000 10.926483 7.100038 -1.524990 -53.483965 24.781203 6.936738 -1.627793 -59.477018 0.014080 -5.567858 -0.888924 0.050790 0.029033 0.150000 -0.000000 0.000000 0.000000 0.000000 0.000000 0.000000 0.000000 7.392289 -24.342856 -0.843778 68.066472 -23.118068 -2.924077 3.565243 29.397387 0.009389 3.686763 5.372961 0.170116 0.081112 -0.018199 -0.000000 0.000000 0.000000 0.000000 0.000000 0.000000 0.000000 
3.184112 16.943218 1.632617 -41.317833 -64.460826 22.372951 -13.195342 -0.248734 -2.446925 4.272431 -0.979580 14.122955 0.012793 2.166694 22.335396 2.498415 13.273380 -14.341262 -1.477100 0.000000 -36.123900 6.735497 7.101817 0.850537 -1.534865 -25.870090 -64.712595 1.340462 1.067317 1.738876 -0.234205 -21.597963 -6.053010 -6.423300 0.000000 -57.105500 3.259365 -8.402949 3.043542 0.778838 -8.670942 -1.891532 -3.848281 -8.622751 0.556203 9.298921 -24.897535 -6.896121 -0.570011 -0.049117 0.139739 0.000000 0.000000 0.000000 10.937749 6.972808 -1.536550 -53.248621 24.813394 7.145037 -1.624936 -59.128344 0.013801 -5.554552 -0.898285 0.050986 0.029941 0.147739 -0.000000 0.000000 0.000000 0.000000 0.000000 0.000000 0.000000 7.705161 -24.285987 -0.821298 68.297702 -23.864381 -4.690602 3.670043 28.263646 0.010206 3.828438 5.632651 0.185322 0.083249 -0.020981 -0.000000 0.000000 0.000000 0.000000 0.000000 0.000000 0.000000 
3.178084 16.936635 1.626936 -41.509350 -63.969438 22.107620 -13.216278 -0.129763 -2.228344 4.879665 -0.810416 14.112029 0.022129 2.141301 22.402156 2.377318 12.573673 -14.443455 -1.446300 0.000000 -36.728300 6.886811 6.872240 0.596728 -1.800658 -25.717661 -61.060232 1.310101 1.124695 0.177244 -0.817328 -22.314137 -3.583411 -6.684000 -0.000000 -57.601500 3.005776 -8.321945 2.940223 0.690080 -8.582402 -1.903131 -3.958959 -8.529908 0.493660 9.388251 -24.796401 -6.942219 -0.602034 -0.050639 0.127667 0.000000 0.000000 0.000000 10.894580 6.916814 -1.537732 -53.002639 24.804538 7.271942 -1.618588 -58.807469 0.013432 -5.491767 -0.907849 0.050788 0.030028 0.145576 -0.000000 0.000000 0.000000 0.000000 0.000000 0.000000 0.000000 7.997630 -24.134273 -0.787254 68.588410 -24.459986 -6.666973 3.792920 26.881553 0.011104 4.017949 5.886917 0.203429 0.085731 -0.023780 -0.000000 0.000000 0.000000 0.000000 0.000000 0.000000 0.000000 
3.173958 16.926297 1.622262 -41.868852 -63.599348 21.921953 -13.243524 -0.004496 -2.034368 5.511117 -0.547119 14.205182 0.030566 2.121578 22.465389 2.259751 11.885473 -14.554550 -1.413900 0.000000 -37.335300 7.013437 6.588438 0.242822 -1.323444 -25.797607 -57.587232 1.385243 1.194468 -1.771305 -1.547283 -22.252949 -0.511551 -6.698300 -0.000000 -58.042000 2.800752 -8.207433 2.946981 0.602947 -8.460673 -1.893693 -4.077121 -8.403300 0.437162 9.451838 -24.610488 -6.979719 -0.637882 -0.052563 0.116506 0.000000 0.000000 0.000000 10.803642 6.938583 -1.530719 -52.764888 24.758172 7.301813 -1.610166 -58.496674 0.012978 -5.378183 -0.913977 0.049896 0.029314 0.143546 -0.000000 0.000000 0.000000 0.000000 0.000000 0.000000 0.000000 8.251767 -23.890578 -0.744272 68.935741 -24.876337 -8.884598 3.932486 25.211380 0.012080 4.259033 6.128711 0.224735 0.088491 -0.026643 -0.000000 0.000000 0.000000 0.000000 0.000000 0.000000 0.000000 
3.171203 16.912622 1.617827 -42.310081 -63.347382 21.731868 -13.269852 0.122022 -1.873849 6.104652 -0.242815 14.460229 0.036819 2.109501 22.486084 2.155241 11.261553 -14.658558 -1.380501 -0.000000 -37.903401 7.127042 6.266084 -0.191069 -0.326687 -26.161094 -54.324658 1.535815 1.250855 -3.875192 -2.264194 -21.469425 2.817568 -6.469200 0.000000 -58.306000 2.610103 -8.068816 3.065119 0.512372 -8.313883 -1.861902 -4.196525 -8.251247 0.387692 9.488874 -24.341578 -7.001554 -0.675053 -0.054787 0.107986 0.000000 0.000000 0.000000 10.677650 7.041030 -1.518418 -52.550952 24.682889 7.223988 -1.601124 -58.177543 0.012444 -5.214589 -0.913092 0.048308 0.027812 0.141630 -0.000000 0.000000 0.000000 0.000000 0.000000 0.000000 0.000000 8.458023 -23.564618 -0.696411 69.323817 -25.093542 -11.366158 4.085024 23.228865 0.013137 4.543971 6.351283 0.248739 0.091513 -0.029723 -0.000000 0.000000 0.000000 0.000000 0.000000 0.000000 0.000000 
3.169220 16.896520 1.612808 -42.758732 -63.213068 21.502963 -13.290130 0.241647 -1.756181 6.614383 0.075016 14.873255 0.040020 2.104628 22.446055 2.068842 10.733436 -14.745302 -1.348399 0.000000 -38.404300 7.249273 5.924250 -0.648175 0.811779 -26.676213 -51.258823 1.708973 1.274463 -5.840929 -2.829134 -20.296340 5.985129 -6.107900 -0.000001 -58.302700 2.401022 -7.912458 3.260989 0.414195 -8.147189 -1.813559 -4.312747 -8.079256 0.346665 9.505512 -24.003217 -7.003432 -0.712340 -0.057284 0.103382 0.000000 0.000000 0.000000 10.532159 7.224267 -1.503919 -52.375981 24.589803 7.028379 -1.592944 -57.832415 0.011836 -5.004212 -0.902160 0.045824 0.025494 0.139759 -0.000000 0.000000 0.000000 0.000000 0.000000 0.000000 0.000000 8.623450 -23.175034 -0.649422 69.711246 -25.107990 -14.072107 4.241662 20.951545 0.014258 4.833038 6.539497 0.272642 0.094867 -0.033153 -0.000000 0.000000 0.000000 0.000000 0.000000 0.000000 0.000000 
3.167541 16.879414 1.606935 -43.166173 -63.163087 21.266563 -13.296720 0.329772 -1.699051 7.026097 0.396112 15.383848 0.043303 2.100571 22.349540 2.001079 10.305280 -14.811409 -1.319201 -0.000000 -38.834600 7.359279 5.628211 -1.014685 1.675093 -27.088173 -49.664940 1.870613 1.096666 -4.744693 -2.757301 -19.100915 7.010986 -5.752900 -0.000000 -58.071400 2.168452 -7.750509 3.462923 0.311534 -7.972562 -1.765072 -4.423320 -7.900020 0.315856 9.508372 -23.606968 -6.984104 -0.749864 -0.060108 0.103424 0.000000 0.000000 0.000000 10.372158 7.484013 -1.488454 -52.250096 24.490801 6.705877 -1.587509 -57.447757 0.011167 -4.751955 -0.878454 0.042445 0.022259 0.137861 -0.000000 0.000000 0.000000 0.000000 0.000000 0.000000 0.000000 8.759235 -22.740760 -0.609142 70.053466 -24.924657 -17.002803 4.393899 18.403800 0.015446 5.094427 6.691687 0.294343 0.098546 -0.037209 -0.000000 0.000000 0.000000 0.000000 0.000000 0.000000 0.000000 
3.166100 16.862721 1.600357 -43.528023 -63.213865 21.033535 -13.291723 0.402877 -1.675826 7.336349 0.731533 15.933153 0.045655 2.096320 22.204946 1.949875 9.975246 -14.853656 -1.293999 0.000000 -39.201099 7.489552 5.347771 -1.311130 2.225648 -27.294636 -48.249531 1.979823 0.901790 -3.133405 -2.570251 -18.221401 7.359832 -5.487299 0.000000 -57.755700 1.900807 -7.580124 3.647334 0.203025 -7.786818 -1.717927 -4.527388 -7.710329 0.294713 9.506591 -23.170138 -6.944138 -0.789215 -0.063405 0.108439 0.000000 0.000000 0.000000 10.198772 7.817458 -1.473416 -52.182066 24.396130 6.246480 -1.586323 -57.013635 0.010446 -4.463830 -0.841089 0.038271 0.018092 0.135822 -0.000000 0.000000 0.000000 0.000000 0.000000 0.000000 0.000000 8.887988 -22.274116 -0.580706 70.299284 -24.565107 -20.098230 4.528965 15.658816 0.016665 5.274390 6.803675 0.309944 0.102498 -0.042073 -0.000000 0.000000 0.000000 0.000000 0.000000 0.000000 0.000000 
3.164632 16.847834 1.593401 -43.831346 -63.355560 20.815325 -13.277128 0.469311 -1.669643 7.551220 1.079205 16.470274 0.046656 2.089996 22.019665 1.912416 9.732382 -14.869994 -1.272600 0.000000 -39.521300 7.652773 5.069872 -1.537590 2.489394 -27.262108 -46.549198 2.033908 0.759904 -1.996329 -2.454495 -17.758118 7.595641 -5.331800 0.000000 -57.509800 1.596798 -7.403696 3.788867 0.089792 -7.592617 -1.677189 -4.623913 -7.512944 0.282042 9.507864 -22.712230 -6.886885 -0.831448 -0.067225 0.117964 0.000000 0.000000 0.000000 10.011756 8.215749 -1.459074 -52.178051 24.314375 5.645481 -1.590914 -56.524489 0.009684 -4.146705 -0.790206 0.033702 0.013026 0.133601 -0.000000 0.000000 0.000000 0.000000 0.000000 0.000000 0.000000 9.028700 -21.792547 -0.567881 70.407925 -24.063086 -23.273779 4.634540 12.808613 0.017872 5.323116 6.889096 0.316844 0.106611 -0.047817 -0.000000 0.000000 0.000000 0.000000 0.000000 0.000000 0.000000 
3.163071 16.835668 1.586336 -44.067214 -63.555271 20.612787 -13.253660 0.531802 -1.669187 7.686016 1.426408 16.961929 0.046750 2.079805 21.800269 1.885019 9.556942 -14.859470 -1.253500 0.000000 -39.821100 7.841027 4.795548 -1.693877 2.529293 -27.013486 -44.637873 2.045270 0.666495 -1.258099 -2.404308 -17.684621 7.690438 -5.273200 -0.000000 -57.429099 1.260155 -7.227148 3.874216 -0.026544 -7.396394 -1.646749 -4.712609 -7.314308 0.274255 9.521737 -22.255591 -6.817562 -0.878210 -0.071624 0.130870 0.000000 0.000000 0.000000 9.816482 8.660718 -1.445164 -52.241739 24.252085 4.905004 -1.602337 -55.978106 0.008898 -3.807768 -0.727549 0.028737 0.007174 0.131253 -0.000000 0.000000 0.000000 0.000000 0.000000 0.000000 0.000000 9.207267 -21.315092 -0.573683 70.358153 -23.490260 -26.314835 4.697972 10.038741 0.018902 5.183012 6.939952 0.310642 0.110779 -0.053950 -0.000000 0.000000 0.000000 0.000000 0.000000 0.000000 0.000000 
